@startuml
left to right direction
component "Presentation Layer" {
    port "Presentation Port" as PresentationPort
    port "Application Access Port" as AppAccessPort

    component "Transport Layer" {
        component "FastAPI"
    }
    PresentationPort --> [FastAPI]

    component "Adapter Layer" {
        component "Translation Layer" {
            package "Ingress" {
                component "Ingress Translation" {      
                }
            }
            package "Egress" {
                component "Egress Translation" {
                }
            }
        }
        component "Route"

        note bottom of Route
        Boundary orchestrator

        Coordinates:
        - ingress translation
        - application interaction
        - egress translation
        end note
    }
}


interface "Presentation API" as PresentationAPI
PresentationPort -left- PresentationAPI

note right of PresentationAPI
Provided Interface:

HTTP Request
→
HTTP Response
end note

interface "JobService API" as JobServiceAPI
AppAccessPort -right-> JobServiceAPI: Command/ Query

note right of JobServiceAPI
Required interface:
Command/ Query
→
ApplicationResult
end note

[FastAPI] --> [Route]: RequestDTO
[Route] --> [Ingress Translation]: RequestDTO
[Ingress Translation] --> [Route]: Command/ Query
[Route] --> AppAccessPort: Command/ Query
AppAccessPort --> Route: ApplicationResult
[Route] --> [Egress Translation]: ApplicationResult
[Egress Translation] --> [Route]: ResponseDTO
[Route] --> [FastAPI]: ResponseDTO
@enduml